<?xml version="1.0" standalone="no"?>
<!DOCTYPE svg PUBLIC "-//W3C//DTD SVG 20010904//EN"
 "http://www.w3.org/TR/2001/REC-SVG-20010904/DTD/svg10.dtd">
<svg version="1.0" xmlns="http://www.w3.org/2000/svg"
 width="700.000000pt" height="700.000000pt" viewBox="0 0 700.000000 700.000000"
 preserveAspectRatio="xMidYMid meet">
<metadata>
Created by potrace 1.14, written by Peter Selinger 2001-2017
</metadata>
<g transform="translate(0.000000,700.000000) scale(0.100000,-0.100000)"
fill="#000000" stroke="none">
<path d="M3179 6105 c0 -11 -1 -528 -2 -1150 l-2 -1130 -140 -1 c-126 -1 -223
-8 -265 -19 -8 -2 -31 -7 -50 -10 -175 -29 -451 -152 -594 -265 -258 -204
-424 -434 -520 -721 -49 -145 -68 -260 -71 -434 -4 -230 31 -406 123 -615 211
-481 672 -817 1202 -876 49 -5 875 -10 960 -5 14 1 15 127 15 1149 l0 1148
116 -1 c150 -2 263 11 403 46 555 140 987 603 1092 1169 21 114 26 343 10 455
-79 546 -444 995 -966 1188 -104 38 -246 72 -355 83 -38 4 -269 8 -512 8 -438
2 -443 1 -444 -19z m1043 -503 c247 -67 454 -213 590 -417 304 -458 169 -1067
-302 -1367 -174 -111 -417 -169 -620 -149 l-55 6 0 970 c0 646 3 972 10 977 5
4 75 6 155 4 106 -3 166 -9 222 -24z m-1077 -2275 l30 -2 1 -973 c0 -534 -2
-972 -5 -973 -3 0 -15 -2 -26 -5 -31 -6 -194 -5 -250 1 -367 43 -697 310 -816
661 -16 47 -32 100 -35 117 -27 152 -24 278 10 432 9 44 49 151 73 199 91 180
219 312 413 428 82 49 247 102 355 114 33 3 61 7 62 8 3 2 145 -3 188 -7z"/>
</g>
</svg>
