<?xml version="1.0" standalone="no"?>
<!DOCTYPE svg PUBLIC "-//W3C//DTD SVG 20010904//EN"
 "http://www.w3.org/TR/2001/REC-SVG-20010904/DTD/svg10.dtd">
<svg version="1.0" xmlns="http://www.w3.org/2000/svg"
 width="700.000000pt" height="700.000000pt" viewBox="0 0 700.000000 700.000000"
 preserveAspectRatio="xMidYMid meet">
<metadata>
Created by potrace 1.14, written by Peter Selinger 2001-2017
</metadata>
<g transform="translate(0.000000,700.000000) scale(0.100000,-0.100000)"
fill="#000000" stroke="none">
<path d="M3068 5463 l-3 -1537 -50 3 c-121 10 -325 3 -450 -15 -117 -17 -421
-101 -452 -127 -7 -5 -13 -7 -13 -3 0 10 -265 -130 -341 -181 -504 -341 -820
-864 -876 -1453 -4 -41 -7 -135 -6 -208 7 -680 375 -1312 968 -1663 98 -58
291 -149 315 -149 9 0 20 -4 25 -9 16 -16 220 -70 350 -93 115 -21 149 -22
765 -22 l645 -1 2 1505 c1 828 2 1517 3 1531 l0 27 163 -1 c144 0 240 5 302
17 11 2 43 7 70 10 81 12 283 67 350 95 11 5 45 19 75 31 77 31 229 109 267
137 17 12 35 23 38 23 11 0 144 98 215 158 168 143 281 278 428 507 63 100
162 338 202 486 66 247 82 574 40 809 -5 30 -11 66 -14 80 -34 201 -160 500
-291 696 -244 361 -595 631 -1007 772 -285 99 -376 108 -1116 111 l-602 2 -2
-1538z m1187 873 c152 -10 345 -65 498 -142 142 -72 327 -225 433 -359 147
-185 248 -430 271 -655 12 -110 4 -353 -11 -378 -2 -4 -7 -23 -10 -43 -25
-157 -144 -405 -267 -555 -76 -92 -298 -284 -329 -284 -5 0 -15 -6 -22 -13
-25 -24 -238 -119 -298 -132 -8 -2 -58 -14 -110 -26 -79 -19 -126 -23 -272
-23 -97 -1 -179 2 -183 6 -8 8 -10 2587 -2 2594 7 7 134 20 177 18 19 -1 76
-5 125 -8z m-1196 -3071 c8 -4 11 -399 11 -1301 0 -1225 -1 -1294 -17 -1295
-10 -1 -29 -3 -43 -5 -48 -7 -255 -7 -300 0 -25 4 -58 10 -75 12 -16 3 -57 12
-90 20 -33 9 -67 17 -75 19 -98 20 -339 147 -445 235 -62 51 -191 182 -215
218 -14 20 -31 43 -37 50 -15 16 -81 128 -116 197 -70 140 -118 347 -120 520
-1 110 8 248 17 264 2 3 7 22 10 42 10 63 57 201 97 286 160 336 490 611 846
703 105 27 117 29 188 37 33 3 62 7 64 9 7 6 289 -4 300 -11z"/>
</g>
</svg>
