<svg width="79" height="18" viewBox="0 0 79 18" fill="none" xmlns="http://www.w3.org/2000/svg">
<path d="M11.08 4.832C11.08 6.512 10.368 7.632 8.944 8.192C9.856 8.4 10.584 8.896 11.128 9.68C11.688 10.464 11.968 11.288 11.968 12.152C11.968 13.512 11.512 14.664 10.6 15.608C9.704 16.536 8.504 17 7 17H0.16V0.464H6.496C7.904 0.464 9.016 0.855999 9.832 1.64C10.664 2.424 11.08 3.488 11.08 4.832ZM2.728 7.256H6.4C7.04 7.256 7.536 7.032 7.888 6.584C8.256 6.136 8.44 5.584 8.44 4.928C8.44 4.256 8.24 3.736 7.84 3.368C7.456 2.984 6.92 2.792 6.232 2.792H2.728V7.256ZM6.808 9.44H2.728V14.672H6.88C7.616 14.672 8.2 14.416 8.632 13.904C9.08 13.392 9.304 12.8 9.304 12.128C9.304 11.456 9.072 10.84 8.608 10.28C8.144 9.72 7.544 9.44 6.808 9.44ZM25.4778 11.36C25.4778 11.808 25.4698 12.112 25.4538 12.272H16.5498C16.6618 13.136 17.0298 13.824 17.6538 14.336C18.2938 14.832 19.0698 15.08 19.9818 15.08C20.6218 15.08 21.2138 14.944 21.7578 14.672C22.3178 14.384 22.7418 13.984 23.0298 13.472C23.2698 13.584 23.6298 13.752 24.1098 13.976C24.6058 14.184 24.9178 14.312 25.0458 14.36C24.5658 15.304 23.8618 16.024 22.9338 16.52C22.0058 17 20.9818 17.24 19.8618 17.24C18.2298 17.24 16.8618 16.696 15.7578 15.608C14.6538 14.52 14.1018 13.104 14.1018 11.36C14.1018 9.616 14.6538 8.216 15.7578 7.16C16.8618 6.088 18.2298 5.552 19.8618 5.552C21.4938 5.552 22.8378 6.088 23.8938 7.16C24.9498 8.216 25.4778 9.616 25.4778 11.36ZM16.5498 10.472H23.0538C22.9418 9.608 22.5898 8.936 21.9978 8.456C21.4218 7.96 20.7098 7.712 19.8618 7.712C18.9818 7.712 18.2378 7.96 17.6298 8.456C17.0218 8.952 16.6618 9.624 16.5498 10.472ZM36.8234 17V15.392C36.4714 15.968 35.9354 16.424 35.2154 16.76C34.5114 17.08 33.7914 17.24 33.0554 17.24C31.4874 17.24 30.1434 16.696 29.0234 15.608C27.9194 14.52 27.3674 13.112 27.3674 11.384C27.3674 9.656 27.9194 8.256 29.0234 7.184C30.1434 6.096 31.4874 5.552 33.0554 5.552C33.7914 5.552 34.5114 5.712 35.2154 6.032C35.9194 6.336 36.4554 6.784 36.8234 7.376V5.792H39.2714V17H36.8234ZM30.8954 8.912C30.2394 9.536 29.9114 10.352 29.9114 11.36C29.9114 12.368 30.2394 13.2 30.8954 13.856C31.5674 14.512 32.3834 14.84 33.3434 14.84C34.3034 14.84 35.1194 14.528 35.7914 13.904C36.4634 13.264 36.7994 12.416 36.7994 11.36C36.7994 10.32 36.4474 9.496 35.7434 8.888C35.0554 8.264 34.2554 7.952 33.3434 7.952C32.3834 7.952 31.5674 8.272 30.8954 8.912ZM43.7678 15.608C42.5998 14.504 42.0158 13.088 42.0158 11.36C42.0158 9.632 42.5918 8.232 43.7438 7.16C44.9118 6.088 46.3278 5.552 47.9918 5.552C49.8478 5.552 51.3278 6.2 52.4318 7.496L50.5118 9.032C49.8878 8.312 49.0478 7.952 47.9918 7.952C47.0158 7.952 46.1838 8.272 45.4958 8.912C44.8078 9.536 44.4638 10.352 44.4638 11.36C44.4638 12.384 44.8078 13.224 45.4958 13.88C46.1998 14.536 47.0318 14.864 47.9918 14.864C49.0318 14.864 49.8718 14.496 50.5118 13.76L52.4558 15.272C51.3518 16.584 49.8638 17.24 47.9918 17.24C46.3438 17.24 44.9358 16.696 43.7678 15.608ZM59.9416 14.84C60.9016 14.84 61.7096 14.52 62.3656 13.88C63.0216 13.24 63.3496 12.4 63.3496 11.36C63.3496 10.352 63.0216 9.536 62.3656 8.912C61.7096 8.288 60.9016 7.976 59.9416 7.976C58.9976 7.976 58.1976 8.288 57.5416 8.912C56.8856 9.536 56.5576 10.352 56.5576 11.36C56.5576 12.384 56.8856 13.224 57.5416 13.88C58.1976 14.52 58.9976 14.84 59.9416 14.84ZM64.0936 15.608C62.9576 16.696 61.5736 17.24 59.9416 17.24C58.3096 17.24 56.9256 16.696 55.7896 15.608C54.6696 14.504 54.1096 13.088 54.1096 11.36C54.1096 9.632 54.6696 8.232 55.7896 7.16C56.9256 6.088 58.3096 5.552 59.9416 5.552C61.5896 5.552 62.9816 6.088 64.1176 7.16C65.2536 8.232 65.8216 9.632 65.8216 11.36C65.8216 13.088 65.2456 14.504 64.0936 15.608ZM71.0359 10.976V17H68.5639V5.792H71.0359V7.472C71.3399 6.864 71.8199 6.392 72.4759 6.056C73.1319 5.72 73.7959 5.552 74.4679 5.552C75.8279 5.552 76.8759 5.976 77.6119 6.824C78.3639 7.672 78.7399 8.888 78.7399 10.472V17H76.2679V10.76C76.2679 9.88 76.0519 9.2 75.6199 8.72C75.2039 8.224 74.6359 7.976 73.9159 7.976C73.0999 7.976 72.4119 8.224 71.8519 8.72C71.3079 9.2 71.0359 9.952 71.0359 10.976Z" fill="#FBBE85"/>
</svg>
