<svg width="106" height="24" viewBox="0 0 106 24" fill="none" xmlns="http://www.w3.org/2000/svg">
<path d="M15.44 6.776C15.44 9.016 14.4907 10.5093 12.592 11.256C13.808 11.5333 14.7787 12.1947 15.504 13.24C16.2507 14.2853 16.624 15.384 16.624 16.536C16.624 18.3493 16.016 19.8853 14.8 21.144C13.6053 22.3813 12.0053 23 10 23H0.88V0.952H9.328C11.2053 0.952 12.688 1.47467 13.776 2.52C14.8853 3.56533 15.44 4.984 15.44 6.776ZM4.304 10.008H9.2C10.0533 10.008 10.7147 9.70933 11.184 9.112C11.6747 8.51467 11.92 7.77867 11.92 6.904C11.92 6.008 11.6533 5.31467 11.12 4.824C10.608 4.312 9.89333 4.056 8.976 4.056H4.304V10.008ZM9.744 12.92H4.304V19.896H9.84C10.8213 19.896 11.6 19.5547 12.176 18.872C12.7733 18.1893 13.072 17.4 13.072 16.504C13.072 15.608 12.7627 14.7867 12.144 14.04C11.5253 13.2933 10.7253 12.92 9.744 12.92ZM34.637 15.48C34.637 16.0773 34.6263 16.4827 34.605 16.696H22.733C22.8823 17.848 23.373 18.7653 24.205 19.448C25.0583 20.1093 26.093 20.44 27.309 20.44C28.1623 20.44 28.9517 20.2587 29.677 19.896C30.4237 19.512 30.989 18.9787 31.373 18.296C31.693 18.4453 32.173 18.6693 32.813 18.968C33.4743 19.2453 33.8903 19.416 34.061 19.48C33.421 20.7387 32.4823 21.6987 31.245 22.36C30.0077 23 28.6423 23.32 27.149 23.32C24.973 23.32 23.149 22.5947 21.677 21.144C20.205 19.6933 19.469 17.8053 19.469 15.48C19.469 13.1547 20.205 11.288 21.677 9.88C23.149 8.45067 24.973 7.736 27.149 7.736C29.325 7.736 31.117 8.45067 32.525 9.88C33.933 11.288 34.637 13.1547 34.637 15.48ZM22.733 14.296H31.405C31.2557 13.144 30.7863 12.248 29.997 11.608C29.229 10.9467 28.2797 10.616 27.149 10.616C25.9757 10.616 24.9837 10.9467 24.173 11.608C23.3623 12.2693 22.8823 13.1653 22.733 14.296ZM49.7645 23V20.856C49.2952 21.624 48.5805 22.232 47.6205 22.68C46.6818 23.1067 45.7218 23.32 44.7405 23.32C42.6498 23.32 40.8578 22.5947 39.3645 21.144C37.8925 19.6933 37.1565 17.816 37.1565 15.512C37.1565 13.208 37.8925 11.3413 39.3645 9.912C40.8578 8.46133 42.6498 7.736 44.7405 7.736C45.7218 7.736 46.6818 7.94933 47.6205 8.376C48.5592 8.78133 49.2738 9.37867 49.7645 10.168V8.056H53.0285V23H49.7645ZM41.8605 12.216C40.9858 13.048 40.5485 14.136 40.5485 15.48C40.5485 16.824 40.9858 17.9333 41.8605 18.808C42.7565 19.6827 43.8445 20.12 45.1245 20.12C46.4045 20.12 47.4925 19.704 48.3885 18.872C49.2845 18.0187 49.7325 16.888 49.7325 15.48C49.7325 14.0933 49.2632 12.9947 48.3245 12.184C47.4072 11.352 46.3405 10.936 45.1245 10.936C43.8445 10.936 42.7565 11.3627 41.8605 12.216ZM59.0238 21.144C57.4664 19.672 56.6878 17.784 56.6878 15.48C56.6878 13.176 57.4558 11.3093 58.9918 9.88C60.5491 8.45067 62.4371 7.736 64.6558 7.736C67.1304 7.736 69.1038 8.6 70.5758 10.328L68.0158 12.376C67.1838 11.416 66.0638 10.936 64.6558 10.936C63.3544 10.936 62.2451 11.3627 61.3278 12.216C60.4104 13.048 59.9518 14.136 59.9518 15.48C59.9518 16.8453 60.4104 17.9653 61.3278 18.84C62.2664 19.7147 63.3758 20.152 64.6558 20.152C66.0424 20.152 67.1624 19.6613 68.0158 18.68L70.6078 20.696C69.1358 22.4453 67.1518 23.32 64.6558 23.32C62.4584 23.32 60.5811 22.5947 59.0238 21.144ZM80.5888 20.12C81.8688 20.12 82.9461 19.6933 83.8208 18.84C84.6954 17.9867 85.1328 16.8667 85.1328 15.48C85.1328 14.136 84.6954 13.048 83.8208 12.216C82.9461 11.384 81.8688 10.968 80.5888 10.968C79.3301 10.968 78.2634 11.384 77.3888 12.216C76.5141 13.048 76.0768 14.136 76.0768 15.48C76.0768 16.8453 76.5141 17.9653 77.3888 18.84C78.2634 19.6933 79.3301 20.12 80.5888 20.12ZM86.1248 21.144C84.6101 22.5947 82.7648 23.32 80.5888 23.32C78.4128 23.32 76.5674 22.5947 75.0528 21.144C73.5594 19.672 72.8128 17.784 72.8128 15.48C72.8128 13.176 73.5594 11.3093 75.0528 9.88C76.5674 8.45067 78.4128 7.736 80.5888 7.736C82.7861 7.736 84.6421 8.45067 86.1568 9.88C87.6714 11.3093 88.4288 13.176 88.4288 15.48C88.4288 17.784 87.6608 19.672 86.1248 21.144ZM95.3813 14.968V23H92.0853V8.056H95.3813V10.296C95.7866 9.48533 96.4266 8.856 97.3013 8.408C98.1759 7.96 99.0613 7.736 99.9573 7.736C101.771 7.736 103.168 8.30133 104.149 9.432C105.152 10.5627 105.653 12.184 105.653 14.296V23H102.357V14.68C102.357 13.5067 102.069 12.6 101.493 11.96C100.939 11.2987 100.181 10.968 99.2213 10.968C98.1333 10.968 97.2159 11.2987 96.4693 11.96C95.7439 12.6 95.3813 13.6027 95.3813 14.968Z" fill="#FBBE85"/>
</svg>
