<svg width="24" height="24" viewBox="0 0 24 24" fill="none" xmlns="http://www.w3.org/2000/svg">
<path d="M12.001 13C12.5533 13 13.001 12.5523 13.001 12C13.001 11.4477 12.5533 11 12.001 11C11.4487 11 11.001 11.4477 11.001 12C11.001 12.5523 11.4487 13 12.001 13Z" stroke="#7D7D7D" stroke-width="2" stroke-linecap="round" stroke-linejoin="round"/>
<path d="M19.001 13C19.5533 13 20.001 12.5523 20.001 12C20.001 11.4477 19.5533 11 19.001 11C18.4487 11 18.001 11.4477 18.001 12C18.001 12.5523 18.4487 13 19.001 13Z" stroke="#7D7D7D" stroke-width="2" stroke-linecap="round" stroke-linejoin="round"/>
<path d="M5.00098 13C5.55326 13 6.00098 12.5523 6.00098 12C6.00098 11.4477 5.55326 11 5.00098 11C4.44869 11 4.00098 11.4477 4.00098 12C4.00098 12.5523 4.44869 13 5.00098 13Z" stroke="#7D7D7D" stroke-width="2" stroke-linecap="round" stroke-linejoin="round"/>
</svg>
