<svg width="160" height="48" viewBox="0 0 160 48" fill="none" xmlns="http://www.w3.org/2000/svg">
<g clip-path="url(#clip0_1295_297)">
<path d="M154.308 48H5.605C2.515 48 0 45.446 0 42.32V5.671C0 2.544 2.515 0 5.605 0H154.308C157.396 0 160 2.544 160 5.671V42.321C160 45.446 157.396 48 154.308 48Z" fill="black"/>
<path d="M158.853 42.3219C158.853 44.8609 156.821 46.9179 154.309 46.9179H5.60518C3.09318 46.9179 1.05518 44.8609 1.05518 42.3219V5.66987C1.05518 3.13187 3.09318 1.06787 5.60518 1.06787H154.307C156.821 1.06787 158.851 3.13187 158.851 5.66987L158.853 42.3219Z" fill="black"/>
<path d="M35.7068 23.74C35.6718 19.873 38.8338 17.992 38.9788 17.904C37.1888 15.261 34.4118 14.899 33.4368 14.87C31.1058 14.622 28.8438 16.283 27.6568 16.283C26.4458 16.283 24.6168 14.894 22.6458 14.935C20.1098 14.975 17.7358 16.462 16.4358 18.77C13.7498 23.478 15.7528 30.396 18.3258 34.201C19.6128 36.065 21.1168 38.146 23.0858 38.072C25.0118 37.992 25.7308 36.829 28.0558 36.829C30.3578 36.829 31.0328 38.072 33.0408 38.026C35.1078 37.992 36.4098 36.154 37.6508 34.273C39.1388 32.137 39.7358 30.033 39.7598 29.926C39.7108 29.909 35.7458 28.375 35.7068 23.74ZM31.9138 12.367C32.9498 11.056 33.6588 9.27096 33.4618 7.45996C31.9618 7.52796 30.0878 8.50996 29.0078 9.79296C28.0528 10.923 27.1988 12.776 27.4198 14.519C29.1038 14.646 30.8328 13.659 31.9138 12.367ZM63.5798 37.805H60.8878L59.4128 33.114H54.2898L52.8848 37.804H50.2648L55.3418 21.835H58.4778L63.5798 37.805ZM58.9688 31.146L57.6348 26.976C57.4948 26.55 57.2298 25.546 56.8398 23.968H56.7928C56.6378 24.647 56.3878 25.65 56.0428 26.976L54.7338 31.146H58.9688ZM76.6358 31.906C76.6358 33.864 76.1128 35.412 75.0678 36.548C74.1318 37.56 72.9678 38.065 71.5808 38.065C70.0828 38.065 69.0068 37.52 68.3508 36.431H68.3038V42.497H65.7768V30.08C65.7768 28.85 65.7448 27.586 65.6838 26.29H67.9058L68.0458 28.115H68.0938C68.9368 26.74 70.2158 26.053 71.9318 26.053C73.2728 26.053 74.3938 26.59 75.2898 27.663C76.1878 28.739 76.6358 30.153 76.6358 31.906ZM74.0618 31.999C74.0618 30.879 73.8118 29.954 73.3118 29.227C72.7658 28.469 72.0318 28.09 71.1118 28.09C70.4898 28.09 69.9228 28.3 69.4168 28.717C68.9098 29.137 68.5768 29.686 68.4228 30.365C68.3532 30.6195 68.3136 30.8813 68.3048 31.145V33.065C68.3048 33.902 68.5588 34.609 69.0658 35.186C69.5728 35.764 70.2318 36.052 71.0428 36.052C71.9948 36.052 72.7348 35.68 73.2648 34.938C73.7958 34.195 74.0618 33.216 74.0618 31.999ZM89.7168 31.906C89.7168 33.864 89.1938 35.412 88.1468 36.548C87.2118 37.56 86.0498 38.065 84.6618 38.065C83.1638 38.065 82.0878 37.52 81.4328 36.431H81.3858V42.497H78.8598V30.08C78.8598 28.85 78.8278 27.586 78.7668 26.29H80.9888L81.1288 28.115H81.1768C82.0188 26.74 83.2968 26.053 85.0148 26.053C86.3548 26.053 87.4748 26.59 88.3738 27.663C89.2688 28.739 89.7168 30.153 89.7168 31.906ZM87.1418 31.999C87.1418 30.879 86.8918 29.954 86.3918 29.227C85.8458 28.469 85.1148 28.09 84.1938 28.09C83.5688 28.09 83.0038 28.3 82.4968 28.717C81.9888 29.137 81.6588 29.686 81.5028 30.365C81.4341 30.6196 81.3949 30.8814 81.3858 31.145V33.065C81.3858 33.902 81.6398 34.609 82.1448 35.186C82.6518 35.762 83.3108 36.052 84.1238 36.052C85.0758 36.052 85.8158 35.68 86.3458 34.938C86.8768 34.195 87.1418 33.216 87.1418 31.999ZM104.342 33.327C104.342 34.685 103.876 35.79 102.941 36.643C101.913 37.576 100.483 38.041 98.6438 38.041C96.9468 38.041 95.5868 37.711 94.5568 37.047L95.1418 34.914C96.2394 35.5904 97.5055 35.9439 98.7948 35.934C99.7468 35.934 100.487 35.716 101.019 35.281C101.549 34.847 101.814 34.264 101.814 33.536C101.814 32.888 101.595 32.342 101.158 31.9C100.723 31.457 99.9968 31.045 98.9818 30.665C96.2208 29.622 94.8418 28.095 94.8418 26.085C94.8418 24.773 95.3248 23.696 96.2918 22.859C97.2578 22.02 98.5448 21.601 100.154 21.601C101.59 21.601 102.782 21.855 103.734 22.36L103.102 24.445C102.213 23.955 101.208 23.711 100.083 23.711C99.1938 23.711 98.4998 23.933 98.0018 24.375C97.5818 24.769 97.3698 25.25 97.3698 25.82C97.3698 26.452 97.6098 26.974 98.0938 27.384C98.5148 27.764 99.2798 28.174 100.389 28.616C101.746 29.17 102.743 29.816 103.384 30.558C104.023 31.298 104.342 32.222 104.342 33.327ZM112.698 28.21H109.913V33.8C109.913 35.222 110.403 35.933 111.387 35.933C111.838 35.933 112.213 35.893 112.509 35.814L112.579 37.757C112.081 37.945 111.426 38.04 110.614 38.04C109.616 38.04 108.836 37.732 108.273 37.116C107.713 36.499 107.431 35.465 107.431 34.012V28.207H105.771V26.287H107.431V24.18L109.913 23.421V26.288H112.698V28.21ZM125.263 31.952C125.263 33.722 124.762 35.176 123.765 36.312C122.718 37.482 121.329 38.065 119.597 38.065C117.929 38.065 116.6 37.505 115.609 36.384C114.618 35.264 114.123 33.848 114.123 32.144C114.123 30.359 114.633 28.897 115.655 27.761C116.676 26.623 118.053 26.054 119.785 26.054C121.453 26.054 122.796 26.614 123.81 27.737C124.779 28.825 125.263 30.23 125.263 31.952ZM122.641 32.035C122.641 30.973 122.417 30.062 121.963 29.303C121.433 28.383 120.676 27.925 119.695 27.925C118.679 27.925 117.907 28.385 117.378 29.303C116.924 30.063 116.7 30.989 116.7 32.083C116.7 33.145 116.924 34.056 117.378 34.814C117.924 35.734 118.687 36.192 119.672 36.192C120.637 36.192 121.394 35.724 121.941 34.79C122.406 34.016 122.641 33.096 122.641 32.035ZM133.477 28.54C133.214 28.4918 132.948 28.468 132.681 28.469C131.792 28.469 131.105 28.809 130.621 29.489C130.2 30.089 129.989 30.847 129.989 31.763V37.805H127.464L127.487 29.916C127.487 28.589 127.455 27.38 127.393 26.291H129.593L129.686 28.494H129.756C130.022 27.737 130.443 27.127 131.019 26.67C131.582 26.258 132.19 26.053 132.846 26.053C133.057 26.0519 133.268 26.0677 133.477 26.1V28.54ZM144.777 31.503C144.777 31.961 144.748 32.347 144.685 32.663H137.104C137.134 33.801 137.5 34.671 138.204 35.271C138.843 35.807 139.669 36.076 140.684 36.076C141.806 36.076 142.83 35.895 143.751 35.531L144.147 37.307C143.071 37.782 141.8 38.019 140.334 38.019C138.57 38.019 137.186 37.493 136.179 36.443C135.174 35.393 134.67 33.983 134.67 32.214C134.67 30.478 135.138 29.032 136.076 27.879C137.057 26.647 138.383 26.032 140.052 26.032C141.691 26.032 142.932 26.647 143.774 27.878C144.442 28.857 144.777 30.066 144.777 31.503ZM142.368 30.839C142.384 30.081 142.22 29.425 141.877 28.872C141.44 28.16 140.768 27.805 139.863 27.805C139.037 27.805 138.365 28.152 137.852 28.848C137.431 29.401 137.181 30.065 137.104 30.838H142.368V30.839ZM58.1328 12.01C58.1328 13.423 57.7138 14.486 56.8788 15.2C56.1048 15.86 55.0048 16.19 53.5808 16.19C52.8738 16.19 52.2698 16.158 51.7638 16.095V8.37896C52.4238 8.27096 53.1338 8.21596 53.9028 8.21596C55.2598 8.21596 56.2828 8.51496 56.9728 9.11196C57.7448 9.78796 58.1328 10.754 58.1328 12.012V12.01ZM56.8228 12.046C56.8228 11.13 56.5828 10.428 56.1048 9.93796C55.6258 9.44996 54.9268 9.20496 54.0058 9.20496C53.6148 9.20496 53.2818 9.23096 53.0058 9.28696V15.153C53.1588 15.177 53.4378 15.188 53.8448 15.188C54.7948 15.188 55.5288 14.921 56.0448 14.385C56.5618 13.85 56.8228 13.071 56.8228 12.046ZM65.0778 13.245C65.0778 14.115 64.8318 14.827 64.3408 15.387C63.8268 15.961 63.1458 16.248 62.2948 16.248C61.4748 16.248 60.8208 15.973 60.3348 15.421C59.8478 14.871 59.6048 14.176 59.6048 13.338C59.6048 12.462 59.8548 11.743 60.3578 11.185C60.8608 10.627 61.5358 10.348 62.3878 10.348C63.2078 10.348 63.8658 10.622 64.3648 11.173C64.8388 11.709 65.0778 12.4 65.0778 13.245ZM63.7888 13.285C63.7888 12.763 63.6778 12.315 63.4558 11.943C63.1958 11.491 62.8238 11.266 62.3418 11.266C61.8428 11.266 61.4638 11.491 61.2028 11.943C60.9798 12.316 60.8698 12.771 60.8698 13.308C60.8698 13.83 60.9808 14.278 61.2028 14.651C61.4728 15.102 61.8468 15.328 62.3298 15.328C62.8038 15.328 63.1758 15.098 63.4438 14.638C63.6738 14.258 63.7888 13.808 63.7888 13.285ZM74.3878 10.463L72.6398 16.12H71.5018L70.7778 13.663C70.597 13.0619 70.4468 12.4522 70.3278 11.836H70.3058C70.1984 12.4547 70.0481 13.0652 69.8558 13.663L69.0878 16.12H67.9368L66.2928 10.463H67.5688L68.2008 13.153C68.3538 13.788 68.4798 14.394 68.5808 14.968H68.6028C68.7285 14.3599 68.882 13.758 69.0628 13.164L69.8568 10.464H70.8688L71.6288 13.107C71.8118 13.751 71.9618 14.371 72.0768 14.969H72.1108C72.1948 14.387 72.3218 13.767 72.4908 13.107L73.1678 10.464L74.3878 10.463ZM80.8268 16.12H79.5848V12.88C79.5848 11.881 79.2098 11.382 78.4588 11.382C78.0898 11.382 77.7928 11.519 77.5618 11.794C77.3337 12.0652 77.2112 12.4096 77.2168 12.764V16.118H75.9748V12.08C75.9748 11.583 75.9588 11.045 75.9298 10.461H77.0208L77.0788 11.346H77.1138C77.2578 11.071 77.4738 10.844 77.7568 10.663C78.094 10.4514 78.4848 10.341 78.8828 10.345C79.4048 10.345 79.8378 10.515 80.1828 10.857C80.6128 11.277 80.8268 11.901 80.8268 12.732V16.12ZM84.2528 16.12H83.0118V7.86696H84.2518L84.2528 16.12ZM91.5638 13.245C91.5638 14.115 91.3188 14.827 90.8278 15.387C90.3128 15.961 89.6308 16.248 88.7808 16.248C87.9598 16.248 87.3068 15.973 86.8208 15.421C86.3348 14.871 86.0908 14.176 86.0908 13.338C86.0908 12.462 86.3408 11.743 86.8438 11.185C87.3468 10.627 88.0218 10.348 88.8718 10.348C89.6938 10.348 90.3518 10.622 90.8518 11.173C91.3258 11.709 91.5638 12.4 91.5638 13.245ZM90.2738 13.285C90.2738 12.763 90.1628 12.315 89.9408 11.943C89.6808 11.491 89.3098 11.266 88.8278 11.266C88.3278 11.266 87.9488 11.491 87.6888 11.943C87.4668 12.316 87.3558 12.771 87.3558 13.308C87.3558 13.83 87.4678 14.278 87.6888 14.651C87.9588 15.102 88.3328 15.328 88.8168 15.328C89.2908 15.328 89.6618 15.098 89.9288 14.638C90.1598 14.258 90.2738 13.808 90.2738 13.285ZM97.5748 16.12H96.4598L96.3668 15.468H96.3328C95.9508 15.988 95.4068 16.248 94.7008 16.248C94.1738 16.248 93.7468 16.076 93.4258 15.736C93.1338 15.426 92.9878 15.041 92.9878 14.584C92.9878 13.893 93.2728 13.366 93.8448 13.001C94.4158 12.636 95.2198 12.457 96.2548 12.466V12.36C96.2548 11.615 95.8678 11.243 95.0948 11.243C94.5428 11.243 94.0568 11.383 93.6378 11.662L93.3848 10.836C93.9048 10.511 94.5448 10.348 95.3018 10.348C96.7618 10.348 97.4938 11.128 97.4938 12.688V14.771C97.4938 15.336 97.5218 15.786 97.5748 16.12ZM96.2848 14.176V13.303C94.9148 13.279 94.2298 13.66 94.2298 14.443C94.2298 14.739 94.3088 14.959 94.4688 15.107C94.6288 15.255 94.8318 15.327 95.0748 15.327C95.3478 15.327 95.6028 15.24 95.8348 15.067C95.9764 14.9661 96.0914 14.8323 96.1698 14.677C96.2482 14.5218 96.2877 14.3498 96.2848 14.176ZM104.634 16.12H103.532L103.474 15.211H103.439C103.087 15.902 102.488 16.248 101.645 16.248C100.972 16.248 100.411 15.98 99.9668 15.445C99.5218 14.91 99.3008 14.215 99.3008 13.362C99.3008 12.446 99.5408 11.705 100.025 11.138C100.493 10.61 101.067 10.346 101.749 10.346C102.5 10.346 103.025 10.602 103.323 11.114H103.347V7.86696H104.59V14.596C104.59 15.146 104.604 15.654 104.634 16.12ZM103.347 13.734V12.791C103.347 12.628 103.335 12.496 103.313 12.395C103.247 12.0999 103.089 11.8333 102.863 11.633C102.635 11.4288 102.339 11.3184 102.033 11.324C101.818 11.3173 101.605 11.3651 101.414 11.4631C101.223 11.561 101.06 11.7058 100.94 11.884C100.676 12.257 100.542 12.734 100.542 13.315C100.542 13.875 100.668 14.328 100.923 14.677C101.192 15.049 101.555 15.235 102.009 15.235C102.417 15.235 102.743 15.08 102.99 14.77C103.23 14.4792 103.357 14.1111 103.347 13.734ZM115.257 13.245C115.257 14.115 115.012 14.827 114.521 15.387C114.007 15.961 113.326 16.248 112.474 16.248C111.655 16.248 111.002 15.973 110.514 15.421C110.028 14.871 109.785 14.176 109.785 13.338C109.785 12.462 110.035 11.743 110.538 11.185C111.04 10.627 111.716 10.348 112.568 10.348C113.387 10.348 114.047 10.622 114.545 11.173C115.019 11.709 115.257 12.4 115.257 13.245ZM113.97 13.285C113.97 12.763 113.859 12.315 113.637 11.943C113.375 11.491 113.005 11.266 112.522 11.266C112.024 11.266 111.645 11.491 111.383 11.943C111.16 12.316 111.05 12.771 111.05 13.308C111.05 13.83 111.161 14.278 111.383 14.651C111.652 15.102 112.026 15.328 112.51 15.328C112.984 15.328 113.357 15.098 113.625 14.638C113.854 14.258 113.97 13.808 113.97 13.285ZM121.935 16.12H120.694V12.88C120.694 11.881 120.32 11.382 119.567 11.382C119.396 11.3769 119.226 11.4115 119.071 11.483C118.915 11.5545 118.778 11.6609 118.671 11.794C118.441 12.068 118.326 12.392 118.326 12.764V16.118H117.083V12.08C117.083 11.583 117.069 11.045 117.039 10.461H118.129L118.188 11.346H118.222C118.368 11.071 118.583 10.844 118.865 10.663C119.203 10.4514 119.594 10.341 119.993 10.345C120.513 10.345 120.947 10.515 121.292 10.857C121.722 11.277 121.935 11.901 121.935 12.732V16.12ZM130.293 11.405H128.926V14.153C128.926 14.851 129.169 15.2 129.65 15.2C129.873 15.2 130.057 15.181 130.203 15.142L130.235 16.096C129.99 16.189 129.667 16.236 129.27 16.236C128.78 16.236 128.398 16.085 128.122 15.782C127.845 15.48 127.707 14.972 127.707 14.257V11.405H126.891V10.463H127.707V9.42596L128.924 9.05396V10.462H130.292L130.293 11.405ZM136.87 16.12H135.626V12.904C135.626 11.89 135.252 11.382 134.502 11.382C133.926 11.382 133.532 11.676 133.317 12.264C133.275 12.411 133.256 12.5632 133.258 12.716V16.118H132.018V7.86796H133.258V11.276H133.282C133.673 10.656 134.234 10.346 134.96 10.346C135.475 10.346 135.9 10.516 136.238 10.859C136.659 11.285 136.87 11.919 136.87 12.756V16.12ZM143.653 13.024C143.653 13.249 143.636 13.439 143.606 13.594H139.881C139.898 14.153 140.076 14.579 140.421 14.874C140.736 15.138 141.142 15.27 141.64 15.27C142.191 15.27 142.694 15.181 143.147 15.002L143.341 15.876C142.811 16.109 142.188 16.226 141.466 16.226C140.601 16.226 139.919 15.967 139.426 15.451C138.931 14.935 138.686 14.243 138.686 13.374C138.686 12.521 138.914 11.81 139.375 11.244C139.857 10.639 140.507 10.337 141.329 10.337C142.132 10.337 142.742 10.639 143.155 11.244C143.488 11.724 143.653 12.318 143.653 13.024ZM142.467 12.698C142.484 12.3593 142.401 12.023 142.227 11.732C142.011 11.383 141.683 11.208 141.238 11.208C140.833 11.208 140.502 11.378 140.25 11.72C140.039 12.0057 139.911 12.3442 139.881 12.698H142.467Z" fill="white"/>
</g>
<defs>
<clipPath id="clip0_1295_297">
<rect width="160" height="48" fill="white"/>
</clipPath>
</defs>
</svg>
