<svg width="161" height="32" viewBox="0 0 161 32" fill="none" xmlns="http://www.w3.org/2000/svg">
<g clip-path="url(#clip0_1366_214)">
<path d="M10.7251 13.446L16.9013 7.23355L23.0801 13.4511L26.6718 9.83429L16.9013 0L7.13086 9.83177L10.7251 13.446Z" fill="#626262"/>
<path d="M0.998535 16.0005L4.59145 12.385L8.18436 16.0005L4.59145 19.6159L0.998535 16.0005Z" fill="#626262"/>
<path d="M10.7252 18.5538L16.9015 24.7688L23.0802 18.5513L26.6745 22.163L26.6719 22.1655L16.9015 31.9998L7.131 22.1706L7.12598 22.1655L10.7252 18.5538Z" fill="#626262"/>
<path d="M25.6123 16.0015L29.2052 12.386L32.7981 16.0015L29.2052 19.6169L25.6123 16.0015Z" fill="#626262"/>
<path d="M20.5459 15.999L16.9014 12.3291L14.2064 15.0411L13.8949 15.3519L13.257 15.9939L13.252 15.999L13.257 16.0065L16.9014 19.6713L20.5459 16.0015L20.5484 15.999H20.5459Z" fill="#626262"/>
<path d="M38.4038 7.75391H46.2202C48.1592 7.75391 49.626 8.2594 50.6207 9.27037C50.9954 9.64382 51.2908 10.09 51.489 10.5818C51.6872 11.0736 51.784 11.6008 51.7735 12.1314V12.1795C51.7803 12.6141 51.7201 13.0472 51.5952 13.4634C51.4839 13.8217 51.3224 14.1621 51.1155 14.4744C50.9226 14.7689 50.6892 15.0344 50.4222 15.2629C50.1614 15.4888 49.8758 15.6839 49.5708 15.8443C50.4503 16.1525 51.2411 16.6732 51.874 17.3607C52.4333 18.001 52.7129 18.8856 52.7129 20.0145V20.0626C52.7288 20.7676 52.5763 21.4662 52.2683 22.0997C51.9699 22.6834 51.5324 23.1835 50.9949 23.5555C50.3873 23.9654 49.7107 24.2609 48.9981 24.4275C48.1515 24.6295 47.2836 24.7271 46.4136 24.7181H38.4038V7.75391ZM45.4365 14.6134C46.1128 14.6463 46.7858 14.4999 47.3881 14.1888C47.623 14.0507 47.8148 13.8492 47.9418 13.6071C48.0687 13.365 48.1258 13.092 48.1065 12.8189V12.7709C48.1189 12.5193 48.0681 12.2686 47.9588 12.042C47.8495 11.8154 47.6852 11.6201 47.4811 11.4743C47.0641 11.1761 46.4621 11.0269 45.6752 11.0269H42.0181V14.6134H45.4365ZM46.4236 21.4501C47.0974 21.4881 47.768 21.333 48.3576 21.0028C48.5873 20.8543 48.7733 20.6465 48.8961 20.4011C49.0189 20.1558 49.0741 19.8818 49.0559 19.6076V19.5596C49.0649 19.2991 49.0104 19.0402 48.897 18.8058C48.7835 18.5714 48.6148 18.3686 48.4054 18.215C47.9733 17.878 47.2751 17.7095 46.3106 17.7095H42.0181V21.4501H46.4236Z" fill="#626262"/>
<path d="M57.3696 7.75391H61.0794V24.7232H57.3696V7.75391Z" fill="#626262"/>
<path d="M66.6929 7.75391H70.1138L78.0206 18.1973V7.75391H81.6826V24.7232H78.5254L70.3599 13.936V24.7232H66.6929V7.75391Z" fill="#626262"/>
<path d="M92.9152 7.63281H96.3311L103.557 24.7234H99.6842L98.142 20.9171H91.0113L89.4691 24.7234H85.6865L92.9152 7.63281ZM96.8183 17.6213L94.5729 12.1165L92.3375 17.6213H96.8183Z" fill="#626262"/>
<path d="M107.568 7.75391H110.989L118.891 18.1973V7.75391H122.553V24.7232H119.396L111.23 13.936V24.7232H107.568V7.75391Z" fill="#626262"/>
<path d="M135.905 25.0215C134.723 25.0317 133.551 24.8013 132.459 24.3442C131.431 23.9172 130.499 23.2875 129.717 22.4923C128.935 21.6971 128.319 20.7524 127.905 19.7139C127.469 18.6276 127.248 17.4659 127.255 16.2942V16.2462C127.235 13.9367 128.118 11.712 129.714 10.0515C130.499 9.24033 131.438 8.59728 132.477 8.16093C133.606 7.69022 134.818 7.45547 136.041 7.47093C136.764 7.4655 137.485 7.53068 138.196 7.66555C138.803 7.78122 139.398 7.95993 139.969 8.19884C140.487 8.41838 140.98 8.6947 141.438 9.02278C141.885 9.34277 142.305 9.69952 142.694 10.0894L140.336 12.8291C139.733 12.2696 139.057 11.796 138.326 11.4213C137.609 11.076 136.821 10.903 136.026 10.9158C135.364 10.9087 134.708 11.0434 134.101 11.311C133.495 11.5786 132.952 11.9728 132.509 12.4677C132.07 12.9613 131.726 13.533 131.494 14.1535C131.252 14.8093 131.131 15.5038 131.135 16.2033V16.2513C131.133 16.9498 131.255 17.6431 131.494 18.2985C131.723 18.9213 132.063 19.4962 132.499 19.9944C132.939 20.4954 133.48 20.8955 134.087 21.1676C134.694 21.4397 135.351 21.5775 136.015 21.5716C136.861 21.5984 137.701 21.4152 138.459 21.0383C139.182 20.6421 139.85 20.1527 140.446 19.5825L142.807 21.9835C142.39 22.4388 141.939 22.8613 141.458 23.2473C140.986 23.6232 140.473 23.9445 139.929 24.2052C139.349 24.4797 138.738 24.6826 138.11 24.8092C137.384 24.9557 136.645 25.0268 135.905 25.0215Z" fill="#626262"/>
<path d="M147.185 7.75391H159.877V11.075H150.835V14.5174H158.797V17.8384H150.847V21.4021H160.002V24.7232H147.193L147.185 7.75391Z" fill="#626262"/>
</g>
<defs>
<clipPath id="clip0_1366_214">
<rect width="161" height="32" fill="white"/>
</clipPath>
</defs>
</svg>
