<svg width="115" height="32" viewBox="0 0 115 32" fill="none" xmlns="http://www.w3.org/2000/svg">
<g clip-path="url(#clip0_1366_229)">
<path d="M15.9027 20.6055V10.0016H0.126594C0.0886399 9.88865 1.03748 8.05649 1.51823 7.3412C4.02318 3.57649 7.93242 1.04159 12.3477 0.326294C16.7124 -0.389 21.0771 0.690216 24.6447 3.36316C25.7581 4.19139 27.3268 5.81022 28.0479 6.86433C28.1618 7.04002 28.263 7.20316 28.263 7.24081L15.9027 20.6683V20.6055ZM74.263 22.8141C72.9599 22.5757 71.8213 21.4588 71.543 20.1537C71.4165 19.5639 71.4165 8.93492 71.543 8.33257C71.796 7.09021 72.5804 6.14904 73.8708 5.64708H86.9649C87.977 5.87296 88.8752 6.6008 89.318 7.51688C89.5963 8.10669 89.6343 8.35767 89.6596 9.78826C89.6849 10.993 89.6722 11.0557 89.5963 11.1435H85.3455C85.3455 10.9804 85.0672 10.4534 84.8142 10.2149C84.5611 9.97649 84.4726 9.83845 83.9792 9.78826H77.527L77.274 9.88865C76.8692 10.0894 76.5908 10.3655 76.3884 10.7545L76.2113 11.1185V17.5435L76.3505 17.8447C76.5402 18.2588 76.8439 18.5726 77.2107 18.7483L77.527 18.8988H84.1183L84.384 18.7734C84.9407 18.4973 85.3455 17.9075 85.3961 17.3302C85.4088 17.1671 85.4594 17.0416 85.51 17.0039H89.609C89.6975 17.0918 89.6975 17.2549 89.6722 18.5851C89.6469 20.2165 89.6216 20.3545 89.2674 21.0698C88.8879 21.8353 88.0402 22.5757 87.1293 22.8392H74.263V22.8141ZM52.5787 22.8141C54.6535 19.7396 56.2476 17.4055 58.4995 14.1051L52.604 5.64708H57.829L61.9913 11.4573L66.1156 5.64708H71.0875L65.3312 14.1428L71.2393 22.8267H66.1156L61.928 16.753L57.6392 22.8267L52.5787 22.8141ZM91.0892 22.8141C91.0765 22.7765 91.0639 19.8275 91.0765 16.113L91.0892 9.36159L91.241 8.82198C91.6838 7.2157 92.6073 6.11139 93.8598 5.67218L94.214 5.63453H111.673L112.065 5.67218C113.507 6.12394 114.583 7.66747 114.823 9.60002C114.874 9.96394 114.886 11.9467 114.874 16.5396L114.861 22.8016H109.94C109.927 18.9365 109.952 15.0714 109.94 11.2063L109.762 10.9051C109.421 10.2149 108.662 9.71296 107.802 9.60002C107.561 9.57492 107.042 9.58747 106.574 9.58747H105.575V22.8016C103.956 22.789 102.172 22.8141 100.552 22.8016V9.60002H99.2113C98.1612 9.60002 98.0221 9.60002 97.7058 9.71296C97.0353 9.93884 96.5798 10.4032 96.2636 10.9553L96.1117 11.2188C96.0991 15.0839 96.1244 18.949 96.1117 22.8141H91.0892ZM35.1579 22.8141L35.1453 15.8745C35.1326 8.06904 35.1326 8.67139 35.5501 7.76786C35.9423 6.91453 36.499 6.32473 37.2454 5.9608C37.6502 5.76002 37.84 5.67218 38.6244 5.64708H51.8703V9.62512L42.2174 9.67531C41.4709 9.70041 41.2938 9.76316 41.0155 9.88865C40.7119 10.0267 40.5474 10.1773 40.3956 10.4534C40.345 10.5537 40.3323 10.629 40.307 10.7545V12.1349H51.8703V16.3263L40.307 16.3765V22.8016L35.1579 22.8141ZM13.5622 31.8243C9.88072 31.5232 6.28776 29.8541 3.61834 27.2063C2.77071 26.3655 1.91042 25.3239 1.93572 25.1483C1.94838 25.0228 14.1189 11.1937 14.2075 11.1937V22.4251H29.5534C29.6293 22.5004 28.9209 23.8557 28.3516 24.6965C27.6937 25.6753 27.0611 26.4408 26.2641 27.2314C22.9115 30.5443 18.3191 32.2008 13.5622 31.8243Z" fill="#626262"/>
</g>
<defs>
<clipPath id="clip0_1366_229">
<rect width="115" height="32" fill="white"/>
</clipPath>
</defs>
</svg>
