<svg width="136" height="32" viewBox="0 0 136 32" fill="none" xmlns="http://www.w3.org/2000/svg">
<g clip-path="url(#clip0_1366_187)">
<path fill-rule="evenodd" clip-rule="evenodd" d="M112.592 9.5163H116.454V5.55121H112.592V9.5163ZM92.0611 16.1229C92.8009 14.1125 94.6886 12.6828 96.9027 12.6828C99.1168 12.6828 101.01 14.1125 101.744 16.1229H92.0611ZM96.9027 8.99135C92.0611 8.99135 88.1334 13.0235 88.1334 17.9938C88.1334 22.9641 92.0611 26.9962 96.9027 26.9962C100.227 26.9962 103.115 25.0975 104.6 22.3051L101.363 20.6912C100.46 22.2605 98.8013 23.3104 96.9027 23.3104C94.5037 23.3104 92.4854 21.635 91.8979 19.3564H101.907V19.362H105.574C105.639 18.9153 105.672 18.4573 105.672 17.9938C105.672 13.0235 101.75 8.99135 96.9027 8.99135ZM106.695 26.516H110.557V22.5509H106.695V26.516ZM112.592 26.516H116.454V11.2587H112.592V26.516ZM127.231 23.3104C124.369 23.3104 122.052 20.9313 122.052 17.9938C122.052 15.0563 124.369 12.6772 127.231 12.6772C130.092 12.6772 132.41 15.0563 132.41 17.9938C132.41 20.9313 130.092 23.3104 127.231 23.3104ZM127.231 8.99135C122.389 8.99135 118.461 13.0235 118.461 17.9938C118.461 22.9641 122.389 26.9962 127.231 26.9962C132.072 26.9962 136 22.9641 136 17.9938C136 13.0235 132.072 8.99135 127.231 8.99135ZM46.4793 14.6765V18.7756H51.8812C51.5984 19.9484 51.0435 20.9983 50.2438 21.836C49.0361 23.1037 47.366 23.7962 45.5382 23.7962C41.7411 23.7962 38.6512 20.6242 38.6512 16.7205C38.6512 12.8224 41.7411 9.64475 45.5382 9.64475C47.5728 9.64475 49.4441 10.5383 50.7388 12.0797L53.8288 9.4828C51.7779 7.01438 48.7369 5.54004 45.5382 5.54004C39.5379 5.54004 34.6582 10.555 34.6582 16.7149C34.6582 22.8748 39.5379 27.8898 45.5382 27.8898C48.454 27.8898 51.136 26.8119 53.0998 24.7512C54.7481 23.02 55.8416 20.6074 56.0483 18.1948C56.1516 17.0165 56.1625 15.8437 56.0972 14.6653L46.4793 14.6765ZM66.1504 23.3104C63.2944 23.3104 60.9715 20.9313 60.9715 17.9938C60.9715 15.0563 63.2889 12.6772 66.1504 12.6772C69.0118 12.6772 71.3292 15.0563 71.3292 17.9938C71.3292 20.9313 69.0118 23.3104 66.1504 23.3104ZM71.3292 10.7449C69.8768 9.65034 68.087 9.0081 66.1504 9.0081C61.3088 9.0081 57.3865 13.0402 57.3865 18.0105C57.3865 22.9809 61.3142 27.013 66.1504 27.013C68.087 27.013 69.8768 26.3652 71.3292 25.2762V26.5215H74.9196V9.49955H71.3292V10.7449ZM82.6227 5.55121H79.0323V9.5163H76.8835V12.9955H79.0323V22.0985C79.0323 23.0367 79.1465 23.8297 79.375 24.4496C79.598 25.0639 79.9462 25.5442 80.3542 25.9184C80.7676 26.2982 81.2518 26.5941 81.8284 26.7673C82.416 26.9348 83.0579 27.0018 83.7433 27.0018C84.4505 27.0018 85.0816 26.9292 85.6147 26.7784C86.1152 26.6388 86.5939 26.4434 87.0345 26.1976V23.3941C86.3273 23.7069 85.6637 23.8242 84.9075 23.8577C84.1078 23.8968 83.64 23.6622 83.2483 23.2769C82.8349 22.8748 82.6172 22.3498 82.6172 21.473V12.9955H87.0345V9.5163H82.6172V5.55121H82.6227Z" fill="#626262"/>
<path fill-rule="evenodd" clip-rule="evenodd" d="M15.5693 24.7903C10.8419 24.7903 7.00672 20.8531 7.00672 16.0001C7.00672 11.147 10.8419 7.20983 15.5693 7.20983V0.0112305C6.96864 0.0112305 0 7.17074 0 16.0001C0 24.8294 6.96864 31.9833 15.5693 31.9833C24.1645 31.9833 31.1386 24.8238 31.1386 16.0001H24.1318C24.1318 20.8587 20.2966 24.7903 15.5693 24.7903Z" fill="#626262"/>
<path fill-rule="evenodd" clip-rule="evenodd" d="M15.5693 16.0002H24.1319V7.20996H15.5693V16.0002Z" fill="#626262"/>
</g>
<defs>
<clipPath id="clip0_1366_187">
<rect width="136" height="32" fill="white"/>
</clipPath>
</defs>
</svg>
