<svg width="160" height="48" viewBox="0 0 160 48" fill="none" xmlns="http://www.w3.org/2000/svg">
<g clip-path="url(#clip0_1295_321)">
<path fill-rule="evenodd" clip-rule="evenodd" d="M154.072 48H5.928C2.661 48 0 45.295 0 42V6C0 2.693 2.66 0 5.928 0H154.072C157.336 0 160 2.693 160 6V42C160 45.295 157.336 48 154.072 48Z" fill="black"/>
<path fill-rule="evenodd" clip-rule="evenodd" d="M154.072 0.96C156.812 0.96 159.055 3.226 159.055 6V42C159.055 44.774 156.827 47.04 154.072 47.04H5.928C3.188 47.04 0.945 44.773 0.945 42V6C0.945 3.226 3.173 0.96 5.928 0.96H154.072ZM154.072 0H5.928C2.661 0 0 2.705 0 6V42C0 45.307 2.66 48 5.928 48H154.072C157.336 48 160 45.307 160 42V6C160 2.705 157.336 0 154.072 0Z" fill="black"/>
<path d="M84.2879 15.8781C83.2199 15.8781 82.3189 15.4981 81.6069 14.7501C80.8961 14.0118 80.5067 13.0219 80.5239 11.9971C80.5239 10.9051 80.8889 9.98014 81.6069 9.24714C82.3169 8.49914 83.2169 8.11914 84.2849 8.11914C85.3419 8.11914 86.2429 8.49914 86.9669 9.24714C87.6849 10.0041 88.0499 10.9291 88.0499 11.9971C88.0379 13.0921 87.6729 14.0171 86.9669 14.7471C86.2569 15.5011 85.3569 15.8781 84.2879 15.8781ZM52.4959 15.8781C51.995 15.885 51.4979 15.7898 51.035 15.5985C50.572 15.4071 50.1528 15.1236 49.8029 14.7651C49.0669 14.0291 48.6929 13.0981 48.6929 12.0001C48.6929 10.9021 49.0669 9.97114 49.8029 9.23514C50.5299 8.49514 51.4369 8.12214 52.4959 8.12214C53.0139 8.12136 53.5263 8.22936 53.9999 8.43914C54.4739 8.64514 54.8599 8.92714 55.1449 9.27114L55.2159 9.35814L54.4179 10.1541L54.3359 10.0541C53.8859 9.51014 53.2819 9.24414 52.4839 9.24414C51.7719 9.24414 51.1509 9.50114 50.6389 10.0101C50.1239 10.5221 49.8619 11.1921 49.8619 12.0031C49.8619 12.8131 50.1239 13.4841 50.6389 13.9961C50.8786 14.242 51.1657 14.4367 51.4828 14.5684C51.7999 14.7001 52.1405 14.766 52.4839 14.7621C53.2439 14.7621 53.8829 14.5051 54.3799 13.9961C54.6739 13.6961 54.8569 13.2781 54.9219 12.7481H52.3639V11.6281H56.0199L56.0339 11.7311C56.0609 11.9191 56.0869 12.1141 56.0869 12.2931C56.0869 13.3261 55.7809 14.1611 55.1749 14.7771C54.4859 15.5071 53.5849 15.8781 52.4959 15.8781ZM94.7669 15.7201H93.6399L90.1869 10.1031L90.2169 11.1141V15.7171H89.0889V8.28014H90.3749L90.4109 8.33714L93.6569 13.6271L93.6269 12.6191V8.28014H94.7669V15.7201ZM75.8169 15.7201H74.6749V9.40014H72.6949V8.28014H77.7949V9.40014H75.8149V15.7201H75.8169ZM71.7639 15.7201H70.6239V8.28014H71.7639V15.7201ZM65.3619 15.7201H64.2219V9.40014H62.2419V8.28014H67.3429V9.40014H65.3619V15.7201ZM61.5209 15.7081H57.1529V8.28014H61.5209V9.40014H58.2949V11.4401H61.2049V12.5481H58.2949V14.5881H61.5209V15.7081ZM82.4429 13.9811C82.6802 14.231 82.9666 14.429 83.2841 14.5629C83.6016 14.6968 83.9433 14.7636 84.2879 14.7591C85.0279 14.7591 85.6309 14.5051 86.1339 13.9811C86.6339 13.4721 86.8869 12.8051 86.8869 12.0001C86.8869 11.1951 86.6339 10.5251 86.1369 10.0191C85.8993 9.76943 85.6127 9.57145 85.295 9.43758C84.9774 9.30371 84.6355 9.23683 84.2909 9.24114C83.5519 9.24114 82.9489 9.49514 82.4489 10.0191C81.9489 10.5281 81.6949 11.1951 81.6949 11.9991C81.6949 12.8051 81.9449 13.4751 82.4429 13.9811Z" fill="white"/>
<path fill-rule="evenodd" clip-rule="evenodd" d="M80.4168 26.107C77.6348 26.107 75.3808 28.252 75.3808 31.212C75.3808 34.145 77.6508 36.317 80.4168 36.317C83.1978 36.317 85.4528 34.157 85.4528 31.212C85.4528 28.252 83.1978 26.107 80.4168 26.107ZM80.4168 34.294C78.8948 34.294 77.5848 33.014 77.5848 31.2C77.5848 29.36 78.8978 28.106 80.4168 28.106C81.9388 28.106 83.2488 29.36 83.2488 31.2C83.2508 33.026 81.9388 34.294 80.4168 34.294ZM69.4288 26.107C66.6468 26.107 64.3928 28.252 64.3928 31.212C64.3928 34.145 66.6628 36.317 69.4288 36.317C72.2108 36.317 74.4648 34.157 74.4648 31.212C74.4648 28.252 72.2078 26.107 69.4288 26.107ZM69.4288 34.294C67.9068 34.294 66.5968 33.014 66.5968 31.2C66.5968 29.36 67.9098 28.106 69.4288 28.106C70.9508 28.106 72.2608 29.36 72.2608 31.2C72.2608 33.026 70.9508 34.294 69.4288 34.294ZM56.3538 27.666V29.826H61.4548C61.2988 31.038 60.9048 31.933 60.3008 32.546C59.5538 33.306 58.3998 34.133 56.3658 34.133C53.2308 34.133 50.7788 31.559 50.7788 28.373C50.7788 25.185 53.2308 22.611 56.3658 22.611C58.0588 22.611 59.2918 23.291 60.2068 24.159L61.7138 22.627C60.4428 21.387 58.7498 20.439 56.3778 20.439C52.0778 20.439 48.4678 24 48.4678 28.36C48.4678 32.732 52.0738 36.281 56.3778 36.281C58.6998 36.281 60.4428 35.509 61.8198 34.055C63.2238 32.627 63.6688 30.613 63.6688 28.989C63.6688 28.483 63.6308 28.028 63.5508 27.642H56.3508C56.3538 27.639 56.3538 27.666 56.3538 27.666ZM109.834 29.348C109.413 28.202 108.141 26.095 105.533 26.095C102.949 26.095 100.8 28.163 100.8 31.2C100.8 34.067 102.926 36.305 105.784 36.305C108.08 36.305 109.416 34.878 109.966 34.04L108.262 32.879C107.697 33.732 106.911 34.291 105.795 34.291C104.668 34.291 103.879 33.771 103.355 32.744L110.069 29.916C110.069 29.919 109.834 29.348 109.834 29.348ZM102.987 31.053C102.934 29.081 104.494 28.079 105.61 28.079C106.49 28.079 107.223 28.519 107.473 29.159L102.987 31.053ZM97.5328 36H99.7378V21.002H97.5328V36ZM93.9128 27.241H93.8328C93.3358 26.64 92.3908 26.095 91.1838 26.095C88.6788 26.095 86.3718 28.336 86.3718 31.215C86.3718 34.082 88.6678 36.296 91.1838 36.296C92.3758 36.296 93.3358 35.749 93.8338 35.136H93.9128V35.868C93.9128 37.816 92.8878 38.867 91.2368 38.867C89.8858 38.867 89.0468 37.879 88.7058 37.053L86.7898 37.867C87.3398 39.214 88.8088 40.881 91.2338 40.881C93.8188 40.881 96.0078 39.334 96.0078 35.561V26.4H93.9238V27.24L93.9128 27.241ZM91.3808 34.294C89.8598 34.294 88.5878 33.002 88.5878 31.215C88.5878 29.413 89.8598 28.109 91.3808 28.109C92.8878 28.109 94.0568 29.429 94.0568 31.215C94.0718 33.002 92.8908 34.294 91.3808 34.294ZM120.156 21.002H114.885V36H117.089V30.32H120.159C122.6 30.32 124.998 28.522 124.998 25.667C124.998 22.812 122.608 21.002 120.156 21.002ZM120.221 28.226H117.086V23.078H120.221C121.873 23.078 122.806 24.464 122.806 25.652C122.806 26.828 121.861 28.226 120.221 28.226ZM133.835 26.08C132.233 26.08 130.582 26.801 129.899 28.372L131.854 29.198C132.275 28.372 133.046 28.091 133.861 28.091C135.003 28.091 136.157 28.785 136.184 30.024V30.183C135.789 29.955 134.924 29.608 133.888 29.608C131.777 29.608 129.637 30.781 129.637 32.981C129.637 34.995 131.368 36.287 133.296 36.287C134.777 36.287 135.592 35.608 136.101 34.821H136.181V35.982H138.306V30.237C138.306 27.561 136.351 26.08 133.835 26.08ZM133.558 34.294C132.837 34.294 131.827 33.935 131.827 33.014C131.827 31.852 133.087 31.412 134.161 31.412C135.133 31.412 135.592 31.625 136.169 31.918C136.01 33.265 134.891 34.282 133.558 34.294ZM146.059 26.4L143.528 32.906H143.448L140.825 26.4H138.453L142.388 35.494L140.145 40.549H142.441L148.496 26.4H146.059ZM126.214 36H128.419V21.002H126.214V36Z" fill="white"/>
<path fill-rule="evenodd" clip-rule="evenodd" d="M12.3159 9.03996C11.9749 9.41496 11.7769 9.98596 11.7769 10.734V37.27C11.7769 38.018 11.9749 38.59 12.3269 38.949L12.4189 39.029L27.0419 24.163V23.831L12.4069 8.95996L12.3159 9.03996Z" fill="url(#paint0_linear_1295_321)"/>
<path fill-rule="evenodd" clip-rule="evenodd" d="M31.9068 29.1322L27.0288 24.1742V23.8262L31.9068 18.8682L32.0128 18.9342L37.7818 22.2672C39.4318 23.2132 39.4318 24.7752 37.7818 25.7332L32.0118 29.0662L31.9068 29.1322Z" fill="url(#paint1_linear_1295_321)"/>
<path fill-rule="evenodd" clip-rule="evenodd" d="M32.0119 29.066L27.0289 24L12.3149 38.96C12.8529 39.546 13.7569 39.612 14.7659 39.04L32.0119 29.066Z" fill="url(#paint2_linear_1295_321)"/>
<path fill-rule="evenodd" clip-rule="evenodd" d="M32.0119 18.9338L14.7659 8.97385C13.7559 8.38785 12.8499 8.46885 12.3149 9.05485L27.0289 23.9998L32.0119 18.9338Z" fill="url(#paint3_linear_1295_321)"/>
<path opacity="0.2" fill-rule="evenodd" clip-rule="evenodd" d="M31.9081 28.959L14.7801 38.852C13.8231 39.412 12.9701 39.372 12.4201 38.864L12.3281 38.957L12.4191 39.037C12.9691 39.543 13.8231 39.585 14.7801 39.025L32.0261 29.066L31.9081 28.959Z" fill="black"/>
<path opacity="0.12" fill-rule="evenodd" clip-rule="evenodd" d="M37.7821 25.56L31.8921 28.959L31.9991 29.066L37.7681 25.733C38.5951 25.253 39.0001 24.625 39.0001 24C38.9501 24.575 38.5301 25.12 37.7811 25.56H37.7821Z" fill="black"/>
<path opacity="0.25" fill-rule="evenodd" clip-rule="evenodd" d="M14.7678 9.14797L37.7828 22.441C38.5298 22.869 38.9508 23.429 39.0158 24.001C39.0158 23.375 38.6098 22.746 37.7828 22.267L14.7678 8.97497C13.1168 8.01497 11.7778 8.81597 11.7778 10.735V10.908C11.7778 8.98697 13.1168 8.19997 14.7678 9.14797Z" fill="white"/>
</g>
<defs>
<linearGradient id="paint0_linear_1295_321" x1="25.7299" y1="10.448" x2="2.25586" y2="16.6" gradientUnits="userSpaceOnUse">
<stop stop-color="#00A0FF"/>
<stop offset="0.007" stop-color="#00A1FF"/>
<stop offset="0.26" stop-color="#00BEFF"/>
<stop offset="0.512" stop-color="#00D2FF"/>
<stop offset="0.76" stop-color="#00DFFF"/>
<stop offset="1" stop-color="#00E3FF"/>
</linearGradient>
<linearGradient id="paint1_linear_1295_321" x1="39.9348" y1="24.0002" x2="11.3748" y2="24.0002" gradientUnits="userSpaceOnUse">
<stop stop-color="#FFE000"/>
<stop offset="0.409" stop-color="#FFBD00"/>
<stop offset="0.775" stop-color="#FFA500"/>
<stop offset="1" stop-color="#FF9C00"/>
</linearGradient>
<linearGradient id="paint2_linear_1295_321" x1="29.3019" y1="26.757" x2="10.0349" y2="58.654" gradientUnits="userSpaceOnUse">
<stop stop-color="#FF3A44"/>
<stop offset="1" stop-color="#C31162"/>
</linearGradient>
<linearGradient id="paint3_linear_1295_321" x1="8.60894" y1="0.214847" x2="17.2049" y2="14.4598" gradientUnits="userSpaceOnUse">
<stop stop-color="#32A071"/>
<stop offset="0.069" stop-color="#2DA771"/>
<stop offset="0.476" stop-color="#15CF74"/>
<stop offset="0.801" stop-color="#06E775"/>
<stop offset="1" stop-color="#00F076"/>
</linearGradient>
<clipPath id="clip0_1295_321">
<rect width="160" height="48" fill="white"/>
</clipPath>
</defs>
</svg>
