<svg width="139" height="32" viewBox="0 0 139 32" fill="none" xmlns="http://www.w3.org/2000/svg">
<g clip-path="url(#clip0_1366_192)">
<path d="M108.693 15.9716C108.693 15.1716 108.693 14.3716 108.693 13.6859C108.693 13.0002 108.579 12.3144 108.465 11.743C108.351 11.1716 108.124 10.6002 107.896 10.0287C107.668 9.4573 107.212 9.00016 106.756 8.54301C106.073 7.8573 105.389 7.40015 104.478 6.94301C103.566 6.60015 102.655 6.37158 101.629 6.37158C100.604 6.37158 99.6925 6.48587 98.781 6.94301C97.9835 7.28587 97.1859 7.8573 96.5023 8.42872C96.0466 8.88587 95.7048 9.34301 95.363 9.91444C95.1351 10.4859 94.9072 11.0573 94.7933 11.6287C94.6794 12.3144 94.5654 13.0002 94.5654 13.5716C94.5654 14.2573 94.5654 15.0573 94.5654 15.8573C94.5654 16.6573 94.5654 17.4573 94.5654 18.143C94.5654 18.8287 94.6794 19.5144 94.7933 20.0859C94.9072 20.6573 95.1351 21.2287 95.363 21.8002C95.5908 22.3716 96.0466 22.8287 96.5023 23.2859C97.1859 23.9716 97.8695 24.4287 98.781 24.7716C99.6925 25.1144 100.718 25.343 101.629 25.343C102.655 25.343 103.566 25.2287 104.478 24.7716C105.275 24.4287 106.073 23.8573 106.756 23.2859C107.212 22.8287 107.554 22.3716 107.896 21.8002C108.124 21.2287 108.351 20.6573 108.465 20.0859C108.579 19.4002 108.693 18.7144 108.693 18.143C108.693 17.5716 108.807 16.7716 108.693 15.9716ZM105.047 15.9716C105.047 16.8859 105.047 17.6859 105.047 18.2573C105.047 18.7144 104.933 19.2859 104.933 19.743C104.933 20.0859 104.82 20.4287 104.592 20.6573C104.478 20.8859 104.364 21.1144 104.136 21.343C103.908 21.6859 103.566 21.9144 103.111 22.0287C102.655 22.2573 102.199 22.2573 101.743 22.2573C101.288 22.2573 100.832 22.143 100.376 22.0287C100.034 21.9144 99.5785 21.5716 99.3507 21.343C99.1228 21.1144 99.0089 20.8859 98.8949 20.6573C98.781 20.3144 98.6671 20.0859 98.6671 19.743C98.5531 19.2859 98.5531 18.7144 98.5531 18.2573C98.5531 17.6859 98.5531 16.8859 98.5531 15.9716C98.5531 15.0573 98.5531 14.2573 98.5531 13.6859C98.5531 13.2287 98.6671 12.6573 98.6671 12.2002C98.6671 11.8573 98.781 11.5144 98.8949 11.2859C99.0089 11.0573 99.1228 10.8287 99.3507 10.6002C99.5785 10.2573 100.034 10.0287 100.376 9.91444C100.832 9.68587 101.288 9.68587 101.743 9.68587C102.199 9.68587 102.655 9.80016 103.111 9.91444C103.452 10.0287 103.794 10.3716 104.136 10.6002C104.364 10.8287 104.478 11.0573 104.592 11.2859C104.706 11.6287 104.82 11.8573 104.933 12.2002C105.047 12.6573 105.047 13.2287 105.047 13.6859C105.047 14.3716 105.047 15.0573 105.047 15.9716Z" fill="#626262"/>
<path d="M138.088 6.82821C138.088 6.59964 137.974 6.48535 137.747 6.48535H134.784C134.556 6.48535 134.442 6.59964 134.442 6.82821V18.1425L127.037 6.59964C127.037 6.48535 126.923 6.48535 126.809 6.48535H123.96C123.733 6.48535 123.619 6.59964 123.619 6.82821V25.1139C123.619 25.3425 123.733 25.4568 123.96 25.4568H127.037C127.265 25.4568 127.378 25.3425 127.378 25.1139V13.7996L134.784 25.3425C134.784 25.4568 134.898 25.4568 135.012 25.4568H137.86C138.088 25.4568 138.202 25.3425 138.202 25.1139L138.088 6.82821Z" fill="#626262"/>
<path d="M117.694 6.82821C117.694 6.59964 117.58 6.48535 117.353 6.48535H114.276C114.049 6.48535 113.935 6.59964 113.935 6.82821V25.1139C113.935 25.3425 114.049 25.4568 114.276 25.4568H117.353C117.58 25.4568 117.694 25.3425 117.694 25.1139V6.82821Z" fill="#626262"/>
<path d="M81.3492 15.9716C81.3492 15.0573 81.3492 14.2573 81.3492 13.6859C81.3492 13.2288 81.4631 12.6573 81.4631 12.2002C81.691 10.6002 82.9443 9.57161 84.5394 9.57161C85.5648 9.57161 86.4762 9.91447 87.1598 10.8288C87.3877 11.2859 87.6156 11.743 87.7295 12.2002C87.7295 12.2002 87.7295 12.3145 87.8435 12.3145H91.4894C91.4894 12.3145 91.6033 12.3145 91.6033 12.2002C91.2615 10.0288 90.0082 7.97161 87.9574 6.94304C86.932 6.48589 85.7926 6.25732 84.6533 6.25732C82.6025 6.25732 80.8935 6.94304 79.5262 8.31447C78.7287 9.11447 78.159 10.0288 77.9312 11.1716C77.7033 12.2002 77.5894 13.8002 77.5894 15.8573C77.5894 17.9145 77.7033 19.5145 77.9312 20.543C78.159 21.5716 78.7287 22.6002 79.4123 23.4002C80.7795 24.7716 82.4885 25.4573 84.5394 25.4573C85.6787 25.4573 86.818 25.2288 87.8435 24.7716C89.8943 23.743 91.1475 21.8002 91.4894 19.5145C91.4894 19.5145 91.4894 19.4002 91.3754 19.4002H87.8435C87.8435 19.4002 87.7295 19.4002 87.7295 19.5145C87.6156 19.9716 87.3877 20.4288 87.1598 20.8859C86.5902 21.8002 85.5648 22.143 84.5394 22.143C82.9443 22.143 81.691 21.2288 81.4631 19.5145C81.3492 19.0573 81.3492 18.4859 81.3492 18.0288C81.3492 17.6859 81.3492 16.8859 81.3492 15.9716Z" fill="#626262"/>
<path d="M43.5229 6.82821C43.5229 6.59964 43.4089 6.48535 43.181 6.48535H40.2188C39.9909 6.48535 39.877 6.59964 39.877 6.82821V25.1139C39.877 25.3425 39.9909 25.4568 40.2188 25.4568H43.295C43.5229 25.4568 43.6368 25.3425 43.6368 25.1139V19.7425L46.0294 16.7711L51.0425 25.3425C51.0425 25.4568 51.1565 25.4568 51.2704 25.4568H54.9163C55.0302 25.4568 55.1442 25.3425 55.0302 25.2282L48.422 14.0282L54.4606 6.82821C54.5745 6.71392 54.5745 6.48535 54.3466 6.48535H50.3589C50.3589 6.48535 50.245 6.48535 50.245 6.59964L43.6368 14.5996V6.82821H43.5229Z" fill="#626262"/>
<path d="M65.7402 22.3711C64.0312 22.3711 62.4361 20.7711 62.4361 18.9425V6.82821C62.4361 6.59964 62.3222 6.48535 62.0943 6.48535H59.0181C58.7902 6.48535 58.6763 6.59964 58.6763 6.82821V18.8282C58.6763 23.0568 61.7525 25.6853 65.6263 25.6853C69.5 25.6853 72.5763 23.0568 72.5763 18.8282V6.82821C72.5763 6.59964 72.4623 6.48535 72.2345 6.48535H69.1582C68.9304 6.48535 68.8164 6.59964 68.8164 6.82821V18.8282C68.9304 20.7711 67.4492 22.3711 65.7402 22.3711Z" fill="#626262"/>
<path fill-rule="evenodd" clip-rule="evenodd" d="M9.34262 15.9714L18.7992 25.4571L24.7238 19.5143C25.7492 18.6 27.4582 18.6 28.4836 19.6286C29.509 20.6571 29.509 22.2571 28.5975 23.4L20.6221 31.1714C19.5967 32.2 17.8877 32.2 16.8623 31.1714L5.46885 19.7429V26.6C5.46885 28.0857 4.21557 29.3429 2.73443 29.3429C1.25328 29.3429 0 28.0857 0 26.6V5.45714C0 3.97143 1.25328 2.71428 2.73443 2.71428C4.21557 2.71428 5.46885 3.97143 5.46885 5.45714V12.2L16.8623 0.771429C17.8877 -0.257143 19.5967 -0.257143 20.6221 0.771429L28.4836 8.65714C29.3951 9.68571 29.3951 11.4 28.3697 12.4286C27.3443 13.4571 25.7492 13.4571 24.6098 12.5429L18.6852 6.6L9.34262 15.9714ZM18.7992 13.3429C17.6598 13.3429 16.7484 14.0286 16.2926 15.0571C15.8369 16.0857 16.0648 17.2286 16.8623 18.0286C17.6598 18.8286 18.7992 19.0571 19.8246 18.6C20.85 18.1429 21.5336 17.2286 21.5336 16.0857C21.5336 15.4 21.3057 14.7143 20.7361 14.1429C20.1664 13.5714 19.4828 13.3429 18.7992 13.3429Z" fill="#626262"/>
</g>
<defs>
<clipPath id="clip0_1366_192">
<rect width="139" height="32" fill="white"/>
</clipPath>
</defs>
</svg>
