<svg width="111" height="32" viewBox="0 0 111 32" fill="none" xmlns="http://www.w3.org/2000/svg">
<g clip-path="url(#clip0_1366_161)">
<path d="M33.7969 30.4798H34.7857C34.7931 30.8283 35.1326 31.125 35.5901 31.125C36.0476 31.125 36.3206 30.8802 36.3206 30.5317C36.3206 30.2573 36.1214 30.0719 35.7008 29.9384L35.103 29.7678C34.033 29.486 33.8412 28.8334 33.8412 28.3885C33.8412 27.5134 34.5939 26.9053 35.531 26.9053C36.4682 26.9053 37.1619 27.4689 37.1619 28.4033H36.1731C36.1731 28.0548 35.9295 27.7804 35.5089 27.7804C35.1252 27.7804 34.8374 28.0399 34.8374 28.3662C34.8374 28.4849 34.8743 28.737 35.3835 28.8853L35.9295 29.0411C36.6675 29.2636 37.3169 29.6418 37.3169 30.4724C37.3169 31.4513 36.483 31.9852 35.5606 31.9852C34.5201 31.9926 33.8043 31.3475 33.7969 30.4798Z" fill="#626262"/>
<path d="M44.7703 31.9109H43.7593L43.4051 28.863L42.2096 31.3547H41.4348L40.2246 28.863L39.8704 31.9109H38.8594L39.4645 26.9941H40.2984L41.8111 30.2201L43.3092 26.9941H44.1578L44.7703 31.9109Z" fill="#626262"/>
<path d="M49.6627 31.9109L49.2642 30.7318H47.4341L47.043 31.9109H45.9951L47.8178 26.9941H48.8805L50.6958 31.9109H49.6627ZM47.7219 29.8641H48.969L48.3418 28.0027L47.7219 29.8641Z" fill="#626262"/>
<path d="M54.6661 31.9109L53.5001 30.1459H53.168V31.9109H52.1792V26.9941H54.1347C55.2564 26.9941 55.7361 27.7951 55.7361 28.6034C55.7361 29.3005 55.249 29.9902 54.5554 30.1089L55.8173 31.9109H54.6661ZM53.168 27.8692V29.345H53.9576C54.5111 29.345 54.7472 29.0113 54.7472 28.6182C54.7472 28.2252 54.4963 27.8692 54.0388 27.8692H53.168Z" fill="#626262"/>
<path d="M60.7542 26.9941V27.8692H59.4037V31.9109H58.4149V27.8692H57.0645V26.9941H60.7542Z" fill="#626262"/>
<path d="M63.396 31.0284H65.5434V31.9035H62.4146V26.9941H65.4844V27.8692H63.396V29.041H65.2187V29.9309H63.396V31.0284Z" fill="#626262"/>
<path d="M69.897 31.9109L68.7311 30.1459H68.399V31.9109H67.4102V26.9941H69.3583C70.48 26.9941 70.9597 27.7951 70.9597 28.6034C70.9597 29.3005 70.4726 29.9902 69.779 30.1089L71.0408 31.9109H69.897ZM68.399 27.8692V29.345H69.1886C69.7421 29.345 69.9782 29.0113 69.9782 28.6182C69.9782 28.2252 69.7273 27.8692 69.2698 27.8692H68.399Z" fill="#626262"/>
<path d="M78.4573 26.9941V27.8692H77.1069V31.9109H76.118V27.8692H74.7676V26.9941H78.4573Z" fill="#626262"/>
<path d="M82.6046 31.9109L81.4386 30.1459H81.1065V31.9109H80.1177V26.9941H82.0658C83.1875 26.9941 83.6672 27.7951 83.6672 28.6034C83.6672 29.3005 83.1801 29.9902 82.4865 30.1089L83.7484 31.9109H82.6046ZM81.1065 27.8692V29.345H81.8961C82.4496 29.345 82.6857 29.0113 82.6857 28.6182C82.6857 28.2252 82.4348 27.8692 81.9773 27.8692H81.1065Z" fill="#626262"/>
<path d="M88.589 31.9109L88.1905 30.7318H86.3604L85.9693 31.9109H84.9214L86.7441 26.9941H87.8068L89.6221 31.9109H88.589ZM86.6482 29.8641H87.8953L87.2681 28.0027L86.6482 29.8641Z" fill="#626262"/>
<path d="M93.0241 26.9941C94.4336 26.9941 95.2453 28.062 95.2453 29.4637C95.2453 30.8653 94.4262 31.9109 93.0241 31.9109H91.1055V26.9941H93.0241ZM93.0241 31.0284C93.8432 31.0284 94.2565 30.3017 94.2565 29.4563C94.2565 28.6108 93.8359 27.8618 93.0241 27.8618H92.0943V31.021H93.0241V31.0284Z" fill="#626262"/>
<path d="M97.083 31.9109V26.9941H98.0719V31.9109H97.083Z" fill="#626262"/>
<path d="M102.853 26.9941H103.842V31.9109H102.957L101.178 28.8259V31.9109H100.189V26.9941H101.105L102.853 30.0421V26.9941Z" fill="#626262"/>
<path d="M105.658 29.4563C105.658 28.0621 106.75 26.9126 108.159 26.9126C108.897 26.9126 109.547 27.2167 109.967 27.6987L109.252 28.3216C108.971 28.025 108.587 27.8396 108.159 27.8396C107.311 27.8396 106.647 28.5886 106.647 29.4637C106.647 30.3388 107.296 31.11 108.189 31.11C108.831 31.11 109.458 30.7244 109.458 30.1534H108.071V29.345H110.536C110.536 31.162 109.532 32 108.204 32C106.728 31.9926 105.65 30.8431 105.658 29.4563Z" fill="#626262"/>
<path d="M40.3869 6.96338C36.2692 6.96338 32.9189 10.3673 32.9189 14.5499C32.9189 18.7326 36.2692 22.1587 40.3869 22.1587C44.5047 22.1587 47.8328 18.7474 47.8328 14.5499C47.8328 10.3525 44.4973 6.96338 40.3869 6.96338ZM40.3648 18.8438C38.0846 18.8438 36.4316 17.0343 36.4316 14.5425C36.4316 12.0507 38.0846 10.2635 40.3648 10.2635C42.645 10.2635 44.3202 12.1027 44.3202 14.5425C44.3202 16.9824 42.6229 18.8438 40.3648 18.8438Z" fill="#626262"/>
<path d="M75.0407 7.20801V14.4312L69.7422 7.20801H66.4067V21.9065H70.1334V14.5721L75.5572 21.9065H78.7673V7.20801H75.0407Z" fill="#626262"/>
<path d="M88.0434 7.20801H81.9185V21.9065H88.0434C92.043 21.9065 94.7292 18.9624 94.7292 14.5869C94.7292 10.2115 92.043 7.20801 88.0434 7.20801ZM85.6524 10.5452H88.0434C90.0654 10.5452 90.9804 12.6439 90.9804 14.5869C90.9804 16.5299 90.058 18.5693 88.0434 18.5693H85.6524V10.5452Z" fill="#626262"/>
<path d="M60.2082 21.9065H64.2079L58.2379 7.20801L56.3857 7.21542L54.5334 7.20801L48.5635 21.9065H52.5631L53.7586 18.5767H59.0128L60.2082 21.9065ZM54.9393 15.2989L56.3857 11.2868L57.832 15.2989H54.9393Z" fill="#626262"/>
<path d="M106.846 21.9065H110.846L104.883 7.20801L103.031 7.21542L101.179 7.20801L95.2163 21.9065H99.216L100.411 18.5767H105.666L106.846 21.9065ZM101.577 15.2989L103.024 11.2868L104.47 15.2989H101.577Z" fill="#626262"/>
<path d="M6.47109 19.6227H2.29433L0.154297 11.4429H4.33106L6.47109 19.6227Z" fill="#626262"/>
<path d="M24.248 12.5998H20.0713L23.4289 0H27.6057L24.248 12.5998Z" fill="#626262"/>
<path d="M15.8578 6.29639L12.323 19.5488L10.2642 27.2911H14.3893H14.4409L20.0345 6.29639H15.8578Z" fill="#626262"/>
<path d="M10.98 14.543H6.80322L10.1682 27.2911H10.2199H14.3893L10.98 14.543Z" fill="#626262"/>
</g>
<defs>
<clipPath id="clip0_1366_161">
<rect width="111" height="32" fill="white"/>
</clipPath>
</defs>
</svg>
