<svg width="64" height="64" viewBox="0 0 64 64" fill="none" xmlns="http://www.w3.org/2000/svg">
<g clip-path="url(#clip0_1299_168)">
<mask id="mask0_1299_168" style="mask-type:luminance" maskUnits="userSpaceOnUse" x="0" y="0" width="64" height="64">
<path d="M64 0H0V64H64V0Z" fill="white"/>
</mask>
<g mask="url(#mask0_1299_168)">
<path d="M56 0H8C3.58172 0 0 3.58172 0 8V56C0 60.4183 3.58172 64 8 64H56C60.4183 64 64 60.4183 64 56V8C64 3.58172 60.4183 0 56 0Z" fill="#FBBE85"/>
<path d="M43.7713 40.0862C41.7837 42.2409 38.7761 43.3332 34.8335 43.3332H33.4169V39.3396L34.5559 39.1115C36.4967 38.7233 37.8468 37.9597 38.5693 36.8392C38.9463 36.2355 39.1601 35.5443 39.1898 34.8332H34.8335C34.4578 34.8332 34.0975 34.6839 33.8318 34.4182C33.5661 34.1525 33.4169 33.7922 33.4169 33.4165V23.4998C33.4169 21.9372 34.6876 20.6665 36.2502 20.6665H44.7502C45.1259 20.6665 45.4863 20.8157 45.7519 21.0814C46.0176 21.3471 46.1669 21.7074 46.1669 22.0832V29.1665L46.1626 33.3017C46.1754 33.459 46.4445 37.1848 43.7713 40.0862ZM20.6669 20.6665H29.1669C29.5426 20.6665 29.9029 20.8157 30.1686 21.0814C30.4343 21.3471 30.5835 21.7074 30.5835 22.0832V29.1665L30.5793 33.3017C30.592 33.459 30.8612 37.1848 28.1879 40.0862C26.2004 42.2409 23.1928 43.3332 19.2502 43.3332H17.8335V39.3396L18.9725 39.1115C20.9134 38.7233 22.2634 37.9597 22.9859 36.8392C23.3629 36.2355 23.5767 35.5443 23.6065 34.8332H19.2502C18.8745 34.8332 18.5141 34.6839 18.2485 34.4182C17.9828 34.1525 17.8335 33.7922 17.8335 33.4165V23.4998C17.8335 21.9372 19.1043 20.6665 20.6669 20.6665Z" fill="white"/>
</g>
</g>
<defs>
<clipPath id="clip0_1299_168">
<rect width="64" height="64" fill="white"/>
</clipPath>
</defs>
</svg>
