<svg width="85" height="32" viewBox="0 0 85 32" fill="none" xmlns="http://www.w3.org/2000/svg">
<g clip-path="url(#clip0_1366_206)">
<path fill-rule="evenodd" clip-rule="evenodd" d="M48.0973 23.5062L45.7636 19.4653L43.483 23.5062H37.8574L43.0675 15.8623L38.0642 8.83789H43.7676L45.7901 12.3641L47.8639 8.83789H53.5141L48.5109 15.8623L53.7475 23.5062H48.0973Z" fill="#626262"/>
<path fill-rule="evenodd" clip-rule="evenodd" d="M78.7787 23.9181C76.8813 23.9181 75.4849 23.1694 74.3978 21.5767V23.5326H69.5767V4.34229H74.375V10.691C75.3597 9.19366 76.8889 8.40194 78.8337 8.40194C82.3324 8.40194 85.0038 11.4883 85.0038 16.2499C85.0038 20.8823 82.412 23.9237 78.7825 23.9237M77.221 12.1659C75.4071 12.1659 74.3181 13.5547 74.3181 16.0253C74.3181 18.7018 75.3028 20.0905 77.1166 20.0905C78.9305 20.0905 79.9949 18.6756 79.9949 16.0253C79.9968 13.5996 78.9077 12.1659 77.221 12.1659Z" fill="#626262"/>
<path fill-rule="evenodd" clip-rule="evenodd" d="M65.6645 12.4524V8.83821H63.1809V4.34619H58.3541V8.83821H56.3828V12.4524H58.3541V18.9041C58.3541 20.0102 57.6844 25.3314 65.6114 23.5365V20.4707C65.4045 20.49 65.1968 20.4981 64.9891 20.495C63.4598 20.495 63.1752 19.8511 63.1752 18.103V12.4524H65.6645Z" fill="#626262"/>
<path fill-rule="evenodd" clip-rule="evenodd" d="M0.819678 32.0056H31.4159C31.5236 32.0059 31.6303 31.9851 31.7298 31.9446C31.8294 31.904 31.9199 31.8445 31.996 31.7693C32.0722 31.6942 32.1325 31.605 32.1736 31.5068C32.2147 31.4086 32.2358 31.3033 32.2355 31.1971V0.808565C32.2358 0.702314 32.2147 0.59706 32.1736 0.49885C32.1325 0.400639 32.0722 0.311406 31.996 0.236274C31.9199 0.161143 31.8294 0.101594 31.7298 0.0610477C31.6303 0.020501 31.5236 -0.000244633 31.4159 2.17657e-06H0.819678C0.711971 -0.000244633 0.605275 0.020501 0.505719 0.0610477C0.406162 0.101594 0.315706 0.161143 0.239545 0.236274C0.163384 0.311406 0.10302 0.400639 0.0619173 0.49885C0.020815 0.59706 -0.00021495 0.702314 3.5242e-05 0.808565V31.1914C-0.000969137 31.2982 0.019504 31.404 0.0602685 31.5029C0.101033 31.6017 0.161279 31.6916 0.237515 31.7674C0.313751 31.8431 0.404462 31.9031 0.504394 31.944C0.604325 31.9849 0.711489 32.0059 0.819678 32.0056ZM21.9065 22.6922C21.7718 22.5668 21.6352 22.4414 21.4986 22.3178C20.0041 20.9781 18.4075 19.7536 16.723 18.655C15.1643 19.5907 13.5534 20.4393 11.8981 21.1967L1.84233 19.209C3.80916 18.7096 5.74093 18.0844 7.62537 17.3373C8.89025 16.8382 10.1191 16.2829 11.3119 15.6715C10.5529 15.3209 9.78768 14.9909 9.01611 14.6814C7.1321 13.9349 5.20101 13.3097 3.23497 12.8097L13.2813 10.8052C14.4197 11.3255 15.5258 11.8826 16.5997 12.4766C17.8246 11.6148 18.9972 10.683 20.1116 9.68591C20.2501 9.56425 20.3849 9.44072 20.5215 9.31158L29.0044 7.72253C26.8163 10.6322 24.2442 13.2406 21.3563 15.4787C24.8049 17.9389 27.8513 20.9056 30.3894 24.2756L21.9065 22.6866V22.6922Z" fill="#626262"/>
</g>
<defs>
<clipPath id="clip0_1366_206">
<rect width="85" height="32" fill="white"/>
</clipPath>
</defs>
</svg>
